<mxfile host="app.diagrams.net" modified="2024-04-07T01:45:28.029Z" agent="Mozilla/5.0 (X11; Linux x86_64) AppleWebKit/537.36 (KHTML, like Gecko) Chrome/123.0.0.0 Safari/537.36" etag="sz4J7AMqhyDWEu9Ff6XZ" version="24.2.0" type="device">
  <diagram id="R2lEEEUBdFMjLlhIrx00" name="Page-1">
    <mxGraphModel dx="1395" dy="618" grid="1" gridSize="10" guides="1" tooltips="1" connect="1" arrows="1" fold="1" page="1" pageScale="1" pageWidth="850" pageHeight="1100" math="0" shadow="0" extFonts="Permanent Marker^https://fonts.googleapis.com/css?family=Permanent+Marker">
      <root>
        <mxCell id="0" />
        <mxCell id="1" parent="0" />
        <mxCell id="hMRRc6IJdTPnuy4DXOlZ-11" style="edgeStyle=orthogonalEdgeStyle;rounded=0;orthogonalLoop=1;jettySize=auto;html=1;entryX=0;entryY=0.5;entryDx=0;entryDy=0;" edge="1" parent="1" source="hMRRc6IJdTPnuy4DXOlZ-4" target="hMRRc6IJdTPnuy4DXOlZ-9">
          <mxGeometry relative="1" as="geometry" />
        </mxCell>
        <mxCell id="hMRRc6IJdTPnuy4DXOlZ-4" value="Commerce" style="whiteSpace=wrap;html=1;align=center;" vertex="1" parent="1">
          <mxGeometry x="240" y="360" width="110" height="40" as="geometry" />
        </mxCell>
        <mxCell id="hMRRc6IJdTPnuy4DXOlZ-13" style="edgeStyle=orthogonalEdgeStyle;rounded=0;orthogonalLoop=1;jettySize=auto;html=1;entryX=0.5;entryY=0;entryDx=0;entryDy=0;" edge="1" parent="1" source="hMRRc6IJdTPnuy4DXOlZ-5" target="hMRRc6IJdTPnuy4DXOlZ-10">
          <mxGeometry relative="1" as="geometry" />
        </mxCell>
        <mxCell id="hMRRc6IJdTPnuy4DXOlZ-5" value="Invoice" style="whiteSpace=wrap;html=1;align=center;" vertex="1" parent="1">
          <mxGeometry x="590" y="360" width="118" height="40" as="geometry" />
        </mxCell>
        <mxCell id="hMRRc6IJdTPnuy4DXOlZ-6" value="Items" style="whiteSpace=wrap;html=1;align=center;" vertex="1" parent="1">
          <mxGeometry x="590" y="590" width="119" height="40" as="geometry" />
        </mxCell>
        <mxCell id="hMRRc6IJdTPnuy4DXOlZ-12" style="edgeStyle=orthogonalEdgeStyle;rounded=0;orthogonalLoop=1;jettySize=auto;html=1;exitX=1;exitY=0.5;exitDx=0;exitDy=0;entryX=0;entryY=0.5;entryDx=0;entryDy=0;" edge="1" parent="1" source="hMRRc6IJdTPnuy4DXOlZ-9" target="hMRRc6IJdTPnuy4DXOlZ-5">
          <mxGeometry relative="1" as="geometry" />
        </mxCell>
        <mxCell id="hMRRc6IJdTPnuy4DXOlZ-9" value="Have" style="shape=rhombus;perimeter=rhombusPerimeter;whiteSpace=wrap;html=1;align=center;" vertex="1" parent="1">
          <mxGeometry x="420" y="350" width="120" height="60" as="geometry" />
        </mxCell>
        <mxCell id="hMRRc6IJdTPnuy4DXOlZ-14" style="edgeStyle=orthogonalEdgeStyle;rounded=0;orthogonalLoop=1;jettySize=auto;html=1;entryX=0.5;entryY=0;entryDx=0;entryDy=0;" edge="1" parent="1" source="hMRRc6IJdTPnuy4DXOlZ-10" target="hMRRc6IJdTPnuy4DXOlZ-6">
          <mxGeometry relative="1" as="geometry" />
        </mxCell>
        <mxCell id="hMRRc6IJdTPnuy4DXOlZ-10" value="Have" style="shape=rhombus;perimeter=rhombusPerimeter;whiteSpace=wrap;html=1;align=center;" vertex="1" parent="1">
          <mxGeometry x="589.5" y="470" width="120" height="60" as="geometry" />
        </mxCell>
        <mxCell id="hMRRc6IJdTPnuy4DXOlZ-15" value="CONCEPTUAL DIAGRAM" style="text;html=1;align=center;verticalAlign=middle;whiteSpace=wrap;rounded=0;" vertex="1" parent="1">
          <mxGeometry x="450" y="240" width="60" height="30" as="geometry" />
        </mxCell>
        <mxCell id="hMRRc6IJdTPnuy4DXOlZ-16" value="1:N" style="text;html=1;align=center;verticalAlign=middle;whiteSpace=wrap;rounded=0;" vertex="1" parent="1">
          <mxGeometry x="490" y="330" width="60" height="30" as="geometry" />
        </mxCell>
        <mxCell id="hMRRc6IJdTPnuy4DXOlZ-17" value="1:N" style="text;html=1;align=center;verticalAlign=middle;whiteSpace=wrap;rounded=0;" vertex="1" parent="1">
          <mxGeometry x="680" y="460" width="60" height="30" as="geometry" />
        </mxCell>
      </root>
    </mxGraphModel>
  </diagram>
</mxfile>
